# xmcd
#
# Track frame offsets:
#	150
#	15362
#	26552
#	40605
#	52972
#	76262
#	90955
#	105382
#	117982
#	131142
#	150865
#	160482
#	173547
#
# Disc length: 2587 seconds
#
# Revision: 1
# Processed by: cddbd v1.4PL0 Copyright (c) Steve Scherf et al.
# Submitted via: audiograbber 1.80.04
#
DISCID=830a190d
DTITLE=White Hassle - National Chain
DYEAR=1997
DGENRE=Alternative
TTITLE0=Let Me Drive Your Car
TTITLE1=The Beating Of My Heart
TTITLE2=What I Said
TTITLE3=Out Of Control
TTITLE4=Tom The Harlequin
TTITLE5=Don't Make A Sound
TTITLE6=Oh, What A Feeling
TTITLE7=Oh, It's So Hard
TTITLE8=I'm So Lonesome I Could Cry
TTITLE9=The Great Ship Adventure
TTITLE10=I LOse Again
TTITLE11=Leave My Woman Alone
TTITLE12=Another Day Passes
EXTD=Named After the fast food chain "White Castle".
EXTT0=
EXTT1=
EXTT2=
EXTT3=
EXTT4=
EXTT5=
EXTT6=
EXTT7=
EXTT8=
EXTT9=
EXTT10=
EXTT11=
EXTT12=
PLAYORDER=
